<?xml version="1.0" ?><!DOCTYPE svg  PUBLIC '-//W3C//DTD SVG 1.1//EN'  'http://www.w3.org/Graphics/SVG/1.1/DTD/svg11.dtd'><svg enable-background="new 0 0 512 512" height="512px" id="Layer_1" version="1.1" viewBox="0 0 512 512" width="512px" xml:space="preserve" xmlns="http://www.w3.org/2000/svg" xmlns:xlink="http://www.w3.org/1999/xlink"><path d="M458.575,143.045c0,0,2.039-34.179-29.531-45.284c6.588,2.776-301.965-85.527-308.377-86.609  C68.839-0.441,51.661,40.765,54.454,51.113c-0.244,4.485,39.283,163.34,39.283,163.34L224.146,454.11l134.979,41.35  c0,0,29.344,11.979,33.346,14.29c18.227,1.609,62.559-2.871,63.975-34.095c0.342,4.863,0-320.292,0-320.292" fill="#1E65B1"/><path d="M413.354,147.935c0,0,41.381-28.161,39.063-31.581c-9.498-16.16-26.74-19.373-26.74-19.373  S126.095,9.618,117.421,10.314C67.104,1.985,54.167,42.586,54.167,42.586l18.836,40.95l145.744,32.618l105.6,34.7L413.354,147.935z" fill="#3373BA"/><path d="M415.241,486.847c-0.049,6.596-11.621,23.513-32.086,20.365c10.248,1.609-305.164-80.347-312.438-82.893  c-17.67-7.133-14.717-35.411-14.717-35.411L54.263,57.16c0,0-3.818-27.762,22.902-18.737c-7.633-1.388,297.734,83.285,306.063,86.06  c36.096,9.715,33.314,39.905,33.314,39.905S415.29,480.251,415.241,486.847z" fill="#3D7BBE"/><polygon fill="#64AADD" points="390.517,132.465 435.28,104.527 454.802,132.636 411.687,159.702 "/><linearGradient gradientUnits="userSpaceOnUse" id="SVGID_1_" x1="224.1416" x2="239.0359" y1="449.1221" y2="394.3314"><stop offset="0" style="stop-color:#69B0E1"/><stop offset="0.503" style="stop-color:#3C79BE"/></linearGradient><path d="M407.571,500.029c-62.859,9.979-180.033-39.201-198.715-41.551L58.476,410.452l2.033-85.056  l136.551,56.564l100.807,28.108l118.57,13.021l-1.09,39.029C415.347,462.12,409.271,490.841,407.571,500.029z" fill="url(#SVGID_1_)"/><linearGradient gradientTransform="matrix(1 0 0 -1 -41.6001 349.0996)" gradientUnits="userSpaceOnUse" id="SVGID_2_" x1="230.416" x2="329.1473" y1="30.9058" y2="263.5023"><stop offset="0" style="stop-color:#5AB2E4"/><stop offset="0.4667" style="stop-color:#95CEF0"/></linearGradient><path d="M416.144,339.621c-203.078,16.234-302.992-47.569-350.709-102.316  c-7.287-65.626,1.305-133.297,1.313-169.692c5.771-4.567-3.018-22.391,4.4-26.237c8.49-0.479,174.666,42.854,331.977,93.282  c4.059,6.646,7.895,13.785,11.482,21.463C414.786,189.07,412.897,274.736,416.144,339.621z" fill="url(#SVGID_2_)"/><g><linearGradient gradientTransform="matrix(1 0 0 -1 -41.6001 349.0996)" gradientUnits="userSpaceOnUse" id="SVGID_3_" x1="-1211.1836" x2="-1191.1837" y1="2498.8818" y2="2466.8821"><stop offset="0" style="stop-color:#1E65B1"/><stop offset="1" style="stop-color:#3273BA"/></linearGradient><path d="M459.138,302.651c-0.037-79.061-0.121-168.631-0.174-170.092   c-0.348-19.115-14.898-31.783-45.715-39.848c-0.305-0.085-3.227-0.917-8.256-2.349C281.618,55.239,133.819,13.27,125.269,11.346   c-28.922-7.848-46.803,1.231-56.715,10.232c-10.736,9.751-14.855,19.948-14.855,22.059c0,2.109,0.748,332.518,0.744,340.536   c-0.172,16.429-0.363,35.049,18.834,41.309l0.201,0.061c2.52,0.684,309.213,84.002,312.396,84.865   c0.402,0.101,7.92,1.938,17.111,1.938c2.645,0,5.426-0.151,8.217-0.541l-0.016-0.113c17.754-1.942,48.525-12.359,47.857-41.442   h-0.014c0.021,0,0.035-0.382,0.039-0.663c0.008-0.642,0.014-1.452,0.02-2.691c0.014-2.461,0.023-6.068,0.033-10.661   c0.018-9.176,0.027-22.286,0.033-38.026C459.169,386.728,459.159,344.731,459.138,302.651z M450.72,470.716   c0.279,11.924-6.42,21.044-19.91,27.117c-10.68,4.809-21.713,5.815-21.955,5.838l0.002,0.032l0,0l-0.002-0.032   c-0.002,0-0.008,0.001-0.008,0.001l0.002,0.031c-10.461,1.165-20.854-1.352-20.875-1.355   c-3.074-0.835-305.244-82.924-312.209-84.815c-12.648-4.179-13.18-15.376-12.994-33.313c0.006-7.765,0.061-312.821,0-338.852   c0.818-2.197,3.529-10.491,11.383-17.623c12.191-11.069,28.686-13.877,49.025-8.336l0.338,0.077   c4.418,0.879,106.182,29.634,279.197,78.889c5.041,1.437,7.969,2.27,8.35,2.375c34.727,9.089,39.391,21.855,39.576,32.007   c0.047,2.19,0.365,330.789,0.092,337.633l2.811,0.169L450.72,470.716z" fill="url(#SVGID_3_)"/><linearGradient gradientTransform="matrix(1 0 0 -1 -41.6001 349.0996)" gradientUnits="userSpaceOnUse" id="SVGID_4_" x1="450.4375" x2="450.4618" y1="-154.5259" y2="-154.5648"><stop offset="0" style="stop-color:#1E65B1"/><stop offset="1" style="stop-color:#3273BA"/></linearGradient><polygon fill="url(#SVGID_4_)" points="408.853,503.671 408.853,503.671 408.849,503.619  "/></g><linearGradient gradientUnits="userSpaceOnUse" id="SVGID_5_" x1="236.6904" x2="218.6913" y1="271.8809" y2="286.881"><stop offset="0" style="stop-color:#FFFFFF"/><stop offset="1" style="stop-color:#69ADDF"/></linearGradient><path d="M419.53,193.232c-0.006-7.937-0.018-14.316-0.029-18.712c-0.008-2.206-0.016-3.913-0.025-5.069  c-0.004-0.593-0.008-1.044-0.014-1.348c-0.002-0.166-0.012-0.327-0.023-0.481c-0.039-24.486-6.176-32.633-32.592-43.437  l-0.285-0.104c-5.271-1.72-288.547-82.22-306.102-87.208l0.01-0.044c-0.135-0.026-0.262-0.04-0.395-0.064  c-0.023-0.006-0.051-0.015-0.072-0.021l-0.002,0.008c-5.527-1.031-9.9-0.229-12.988,2.388c-4.813,4.08-4.42,8.313-4.42,8.564  c-0.029,77.204-0.117,333.542,0.002,341.542h-0.002c0.412,20,3.275,25.171,18.023,30.413l0.303-0.032  c2.975,0.809,294.605,79.979,307.588,82.768c4.5,1.229,8.27,1.846,11.545,1.846c1.258,0,2.438-0.097,3.563-0.277  c1.535-0.047,4.363-0.533,7.283-3.127c5.752-5.108,8.625-15.628,8.541-31.246c0-8.552,0.014-30.172,0.031-58.147  c0.027-44.703,0.066-105.631,0.074-155.383C419.55,231.181,419.546,209.098,419.53,193.232z M411.13,167.98  c0.16,4.041,0.063,159.785,0.012,243.456c-0.018,27.979-0.031,49.603-0.031,58.175c0.088,16.398-3.275,22.964-5.828,25.126  c-3.068,1.666-7.602,1.542-14.686-0.405l-0.416-0.092c-7.074-1.305-247.445-66.454-306.926-82.606  c-10.129-3.603-11.963-4.344-12.336-22.876c-0.098-3.759-0.045-212.083,0.002-334.589c0-0.336-0.014-0.749-0.031-1.221  c-0.07-1.954-0.219-6.018,1.51-7.482c1.006-0.854,3.01-1.059,5.67-0.612C181.45,74.229,376.782,129.78,383.853,131.96  c24.738,10.139,27.258,15.881,27.258,35.897l2.219,0.037L411.13,167.98z" fill="url(#SVGID_5_)"/><g><g><polygon fill="#43609E" points="244.393,420.785 186.758,405.13 186.978,261.301 159.454,252.207 160.481,207.262 170,207.428     174.198,241.805 201.497,250.824 201.277,394.046 247.809,410.465   "/></g><g opacity="0.53"><g><polygon fill="#FFFFFF" points="264,413 257,411 257,280 264,282    "/></g><g><polygon fill="#FFFFFF" points="264,225 257,223 257,186 264,188    "/></g><g><polygon fill="#FFFFFF" points="307,282 300,280 300,244 307,246    "/></g><g><polygon fill="#FFFFFF" points="307,181 300,179 300,150 307,152    "/></g></g><path d="M194.245,221.93l-0.228-54.611   c0,0-0.68-26.285,39.011-29.686" fill="none" stroke="#43609E" stroke-miterlimit="10" stroke-width="14.5027"/><g><polygon fill="#43609E" points="289.789,286.876 242.381,272.374 246.623,258.505 293,275.863   "/></g><g><path d="M288.498,190.289l-27.766-6.896c-4.921-0.949-10.977-0.97-12.521-0.029    c0.003-0.002,0.156-0.098,0.35-0.331l-11.193-9.223c6.314-7.665,20.539-5.776,26.363-4.607l0.321,0.072L293,180.236    L288.498,190.289z" fill="#43609E"/></g><path d="M247.809,410.465l-50.166-13.434l-0.521-146.096L170,243.457v-36.029l28.027,7.252   c0,0,0.276-42.602-0.042-48.494c0-14.729,17.681-40.816,44.562-34.896c9.52,0.453,50.453,12.916,50.453,12.916v36.031   c0,0-15.888-3.953-32.869-8.158c-11.507,0.645-10.959,11.535-11.072,24.033c0.238,6.807,0.012,31.258,0.012,31.258L293,240.965   v34.898l-44.348-12.84L247.809,410.465z" fill="#FFFFFF"/></g></svg>